<svg xmlns="http://www.w3.org/2000/svg" width="860" height="140" viewBox="0 0 860 140" role="img" aria-label="jmcomic을 사용하는 프로젝트">
  <desc>GitHub 공개 데이터를 바탕으로 자동 정리하여 커뮤니티의 관련 프로젝트를 소개합니다.</desc>
  <style>text { font-family:-apple-system,BlinkMacSystemFont,'Segoe UI','Noto Sans CJK SC','Noto Sans',sans-serif; }</style>
  <rect x="4" y="4" width="852" height="132" rx="8" fill="#161b22" stroke="#30363d"/>
  <rect x="22" y="24" width="5" height="92" rx="2.5" fill="#ffb000"/>
  <text x="46" y="49" font-size="22" font-weight="700" fill="#f0f6fc">jmcomic을 사용하는 프로젝트</text>
  <text x="46" y="76" font-size="10.5" fill="#9da7b1">GitHub 공개 데이터를 바탕으로 자동 정리하여 커뮤니티의 관련</text><text x="46" y="91" font-size="10.5" fill="#9da7b1">프로젝트를 소개합니다.</text>
  <rect x="46" y="101" width="68" height="21" rx="5" fill="#3d2b00"/>
  <text x="57" y="116" font-size="12" font-weight="700" fill="#ffb000">자동 생성</text>
  <g transform="translate(468 24)">
    <title>최근 30일 활동: 16 / 73</title>
    <rect width="116" height="42" rx="7" fill="#202442" stroke="#454c86"/>
    <text x="10" y="17" font-size="9.5" fill="#a5b4fc">최근 30일 활동</text>
    <text x="10" y="35" font-size="16" font-weight="700" fill="#a5b4fc">16</text>
  </g><g transform="translate(594 24)">
    <title>공개 종속 저장소: 112</title>
    <rect width="116" height="42" rx="7" fill="#2d2048" stroke="#6e40c9"/>
    <text x="10" y="17" font-size="9.5" fill="#d2a8ff">공개 종속 저장소</text>
    <text x="10" y="35" font-size="16" font-weight="700" fill="#d2a8ff">112</text>
  </g><g transform="translate(720 24)">
    <title>현재 표시: 상위 9개</title>
    <rect width="116" height="42" rx="7" fill="#123621" stroke="#238636"/>
    <text x="10" y="17" font-size="9.5" fill="#56d364">현재 표시</text>
    <text x="10" y="35" font-size="16" font-weight="700" fill="#56d364">상위 9개</text>
  </g><g transform="translate(468 76)" data-updated-at="2026-09-12T04:53:56.479515+00:00">
    <title>UTC+8</title>
    <rect width="116" height="42" rx="7" fill="#38202d" stroke="#794052"/>
    <text x="10" y="17" font-size="9.5" fill="#f3a6bc">업데이트</text>
    <text x="10" y="35" font-size="14" font-weight="700" fill="#f3a6bc">2026-09-12</text>
  </g><g transform="translate(594 76)">
    <title>Star 합계: 12577</title>
    <rect width="116" height="42" rx="7" fill="#3d2b00" stroke="#9e6a03"/>
    <text x="10" y="17" font-size="9.5" fill="#ffb000">Star 합계</text>
    <text x="10" y="35" font-size="16" font-weight="700" fill="#ffb000">12577</text>
  </g><g transform="translate(720 76)">
    <title>Fork 합계: 587</title>
    <rect width="116" height="42" rx="7" fill="#102c4c" stroke="#1f6feb"/>
    <text x="10" y="17" font-size="9.5" fill="#58a6ff">Fork 합계</text>
    <text x="10" y="35" font-size="16" font-weight="700" fill="#58a6ff">587</text>
  </g>
</svg>