<svg xmlns="http://www.w3.org/2000/svg" width="860" height="140" viewBox="0 0 860 140" role="img" aria-label="jmcomic을 사용하는 프로젝트">
  <desc>GitHub 공개 데이터를 바탕으로 자동 정리하여 커뮤니티의 관련 프로젝트를 소개합니다.</desc>
  <style>text { font-family:-apple-system,BlinkMacSystemFont,'Segoe UI','Noto Sans CJK SC','Noto Sans',sans-serif; }</style>
  <rect x="4" y="4" width="852" height="132" rx="8" fill="#ffffff" stroke="#d8dee4"/>
  <rect x="22" y="24" width="5" height="92" rx="2.5" fill="#ff8500"/>
  <text x="46" y="49" font-size="22" font-weight="700" fill="#24292f">jmcomic을 사용하는 프로젝트</text>
  <text x="46" y="76" font-size="10.5" fill="#57606a">GitHub 공개 데이터를 바탕으로 자동 정리하여 커뮤니티의 관련</text><text x="46" y="91" font-size="10.5" fill="#57606a">프로젝트를 소개합니다.</text>
  <rect x="46" y="101" width="68" height="21" rx="5" fill="#fff1df"/>
  <text x="57" y="116" font-size="12" font-weight="700" fill="#b84f00">자동 생성</text>
  <g transform="translate(468 24)">
    <title>최근 30일 활동: 16 / 73</title>
    <rect width="116" height="42" rx="7" fill="#eef2ff" stroke="#c7d2fe"/>
    <text x="10" y="17" font-size="9.5" fill="#4f46b8">최근 30일 활동</text>
    <text x="10" y="35" font-size="16" font-weight="700" fill="#4f46b8">16</text>
  </g><g transform="translate(594 24)">
    <title>공개 종속 저장소: 112</title>
    <rect width="116" height="42" rx="7" fill="#f5f0ff" stroke="#d8c4ff"/>
    <text x="10" y="17" font-size="9.5" fill="#6639ba">공개 종속 저장소</text>
    <text x="10" y="35" font-size="16" font-weight="700" fill="#6639ba">112</text>
  </g><g transform="translate(720 24)">
    <title>현재 표시: 상위 9개</title>
    <rect width="116" height="42" rx="7" fill="#edfff4" stroke="#9be9b7"/>
    <text x="10" y="17" font-size="9.5" fill="#168244">현재 표시</text>
    <text x="10" y="35" font-size="16" font-weight="700" fill="#168244">상위 9개</text>
  </g><g transform="translate(468 76)" data-updated-at="2026-09-12T04:53:56.479515+00:00">
    <title>UTC+8</title>
    <rect width="116" height="42" rx="7" fill="#fff1f3" stroke="#fecdd6"/>
    <text x="10" y="17" font-size="9.5" fill="#be4264">업데이트</text>
    <text x="10" y="35" font-size="14" font-weight="700" fill="#be4264">2026-09-12</text>
  </g><g transform="translate(594 76)">
    <title>Star 합계: 12577</title>
    <rect width="116" height="42" rx="7" fill="#fff4e5" stroke="#ffc46b"/>
    <text x="10" y="17" font-size="9.5" fill="#c45d00">Star 합계</text>
    <text x="10" y="35" font-size="16" font-weight="700" fill="#c45d00">12577</text>
  </g><g transform="translate(720 76)">
    <title>Fork 합계: 587</title>
    <rect width="116" height="42" rx="7" fill="#edf6ff" stroke="#9ecbff"/>
    <text x="10" y="17" font-size="9.5" fill="#0969da">Fork 합계</text>
    <text x="10" y="35" font-size="16" font-weight="700" fill="#0969da">587</text>
  </g>
</svg>