<svg xmlns="http://www.w3.org/2000/svg" width="860" height="584" viewBox="0 0 860 584" role="img" aria-label="Projects using jmcomic"><svg width="860" height="140" viewBox="0 0 860 140" role="img" aria-label="Projects using jmcomic" x="0" y="0">
  <style>text { font-family:-apple-system,BlinkMacSystemFont,'Segoe UI','Noto Sans CJK SC','Noto Sans',sans-serif; }</style>
  <rect x="4" y="4" width="852" height="132" rx="8" fill="#ffffff" stroke="#d8dee4" />
  <rect x="22" y="24" width="5" height="92" rx="2.5" fill="#ff8500" />
  <text x="46" y="53" font-size="27" font-weight="700" fill="#24292f">Projects using jmcomic</text>
  <rect x="46" y="72" width="68" height="24" rx="5" fill="#fff1df" />
  <text x="57" y="89" font-size="12" font-weight="700" fill="#b84f00">Automated</text>
  <text x="126" y="89" font-size="10.5" fill="#57606a">Automatically organized from public GitHub data to showcase related projects in the community.</text>
  <g transform="translate(594 30)"><rect width="110" height="76" rx="7" fill="#f6f8fa" stroke="#d0d7de" /><text x="12" y="27" font-size="11" fill="#57606a">Public dependents</text><text x="12" y="57" font-size="23" font-weight="700" fill="#24292f">109</text></g>
  <g transform="translate(716 30)"><rect width="120" height="76" rx="7" fill="#fff7ed" stroke="#ffbf78" /><text x="12" y="27" font-size="11" fill="#b84f00">Showing</text><text x="12" y="57" font-size="23" font-weight="700" fill="#ff8500">Top 9</text></g>
</svg><svg width="280" height="136" viewBox="0 0 280 136" role="img" aria-label="hect0x7 / JMComic-APK" x="0" y="152">
  <style>
    text { font-family:-apple-system,BlinkMacSystemFont,'Segoe UI','Noto Sans CJK SC','Noto Sans',sans-serif; }
    .title { font-size:15px;font-weight:600;fill:#2f80ed; }
    .description { font-size:12px;fill:#434d58; }
    .metric-value { font-size:11px;font-weight:600;fill:#434d58; }
    .updated { font-size:10px;fill:#6e7781;letter-spacing:.1px; }
  </style>
  <rect x="4" y="4" width="272" height="128" rx="10" fill="#fffefe" stroke="#e4e2e2" />
  <text x="14" y="29" class="title">hect0x7 / JMComic-APK</text>
  <text x="14" y="50" class="description">防迷路 | 禁漫天堂APK |</text><text x="14" y="67" class="description">禁漫APP安卓安装包 | jm天堂 | 回家 | G…</text>
  <line x1="14" y1="91" x2="266" y2="91" stroke="#e4e2e2" />
  <g transform="translate(14 105)">
    <path data-icon="star" d="M8 .75l2.16 4.37 4.82.7-3.49 3.4.82 4.8L8 11.75l-4.31 2.27.82-4.8-3.49-3.4 4.82-.7L8 .75z" fill="#ff8500" />
    <text x="22" y="12" class="metric-value">5.6k</text>
  </g>
  <g transform="translate(79 105)">
    <g data-icon="fork" fill="none" stroke="#0969da" stroke-width="1.7" stroke-linecap="round" stroke-linejoin="round">
      <circle cx="4" cy="3" r="2" /><circle cx="12" cy="3" r="2" /><circle cx="8" cy="13" r="2" />
      <path d="M4 5v1c0 2.2 1.8 4 4 4v1M12 5v1c0 2.2-1.8 4-4 4" />
    </g>
    <text x="22" y="12" class="metric-value">112</text>
  </g>
  <g data-icon="activity" transform="translate(183 107)" fill="none" stroke="#6e7781" stroke-width="1.4" stroke-linecap="round" stroke-linejoin="round">
    <circle cx="6" cy="6" r="5" />
    <path d="M6 3v3l2 1.5" />
  </g>
  <text x="266" y="117" text-anchor="end" class="updated">Jul 21, 2026</text>
</svg><svg width="280" height="136" viewBox="0 0 280 136" role="img" aria-label="tonquer / JMComic-qt" x="290" y="152">
  <style>
    text { font-family:-apple-system,BlinkMacSystemFont,'Segoe UI','Noto Sans CJK SC','Noto Sans',sans-serif; }
    .title { font-size:15px;font-weight:600;fill:#2f80ed; }
    .description { font-size:12px;fill:#434d58; }
    .metric-value { font-size:11px;font-weight:600;fill:#434d58; }
    .updated { font-size:10px;fill:#6e7781;letter-spacing:.1px; }
  </style>
  <rect x="4" y="4" width="272" height="128" rx="10" fill="#fffefe" stroke="#e4e2e2" />
  <text x="14" y="29" class="title">tonquer / JMComic-qt</text>
  <text x="14" y="50" class="description">禁漫天堂，18comic，使用qt实现的PC客户</text><text x="14" y="67" class="description">端，支持Windows，Linux，MacOS</text>
  <line x1="14" y1="91" x2="266" y2="91" stroke="#e4e2e2" />
  <g transform="translate(14 105)">
    <path data-icon="star" d="M8 .75l2.16 4.37 4.82.7-3.49 3.4.82 4.8L8 11.75l-4.31 2.27.82-4.8-3.49-3.4 4.82-.7L8 .75z" fill="#ff8500" />
    <text x="22" y="12" class="metric-value">3.9k</text>
  </g>
  <g transform="translate(79 105)">
    <g data-icon="fork" fill="none" stroke="#0969da" stroke-width="1.7" stroke-linecap="round" stroke-linejoin="round">
      <circle cx="4" cy="3" r="2" /><circle cx="12" cy="3" r="2" /><circle cx="8" cy="13" r="2" />
      <path d="M4 5v1c0 2.2 1.8 4 4 4v1M12 5v1c0 2.2-1.8 4-4 4" />
    </g>
    <text x="22" y="12" class="metric-value">192</text>
  </g>
  <g data-icon="activity" transform="translate(183 107)" fill="none" stroke="#6e7781" stroke-width="1.4" stroke-linecap="round" stroke-linejoin="round">
    <circle cx="6" cy="6" r="5" />
    <path d="M6 3v3l2 1.5" />
  </g>
  <text x="266" y="117" text-anchor="end" class="updated">Jul 23, 2026</text>
</svg><svg width="280" height="136" viewBox="0 0 280 136" role="img" aria-label="RTGS2017 / NagaAgent" x="580" y="152">
  <style>
    text { font-family:-apple-system,BlinkMacSystemFont,'Segoe UI','Noto Sans CJK SC','Noto Sans',sans-serif; }
    .title { font-size:15px;font-weight:600;fill:#2f80ed; }
    .description { font-size:12px;fill:#434d58; }
    .metric-value { font-size:11px;font-weight:600;fill:#434d58; }
    .updated { font-size:10px;fill:#6e7781;letter-spacing:.1px; }
  </style>
  <rect x="4" y="4" width="272" height="128" rx="10" fill="#fffefe" stroke="#e4e2e2" />
  <text x="14" y="29" class="title">RTGS2017 / NagaAgent</text>
  <text x="14" y="50" class="description">A simple yet powerful agent framework</text><text x="14" y="67" class="description">for personal assistants, designed to…</text>
  <line x1="14" y1="91" x2="266" y2="91" stroke="#e4e2e2" />
  <g transform="translate(14 105)">
    <path data-icon="star" d="M8 .75l2.16 4.37 4.82.7-3.49 3.4.82 4.8L8 11.75l-4.31 2.27.82-4.8-3.49-3.4 4.82-.7L8 .75z" fill="#ff8500" />
    <text x="22" y="12" class="metric-value">1.5k</text>
  </g>
  <g transform="translate(79 105)">
    <g data-icon="fork" fill="none" stroke="#0969da" stroke-width="1.7" stroke-linecap="round" stroke-linejoin="round">
      <circle cx="4" cy="3" r="2" /><circle cx="12" cy="3" r="2" /><circle cx="8" cy="13" r="2" />
      <path d="M4 5v1c0 2.2 1.8 4 4 4v1M12 5v1c0 2.2-1.8 4-4 4" />
    </g>
    <text x="22" y="12" class="metric-value">164</text>
  </g>
  <g data-icon="activity" transform="translate(183 107)" fill="none" stroke="#6e7781" stroke-width="1.4" stroke-linecap="round" stroke-linejoin="round">
    <circle cx="6" cy="6" r="5" />
    <path d="M6 3v3l2 1.5" />
  </g>
  <text x="266" y="117" text-anchor="end" class="updated">Jul 16, 2026</text>
</svg><svg width="280" height="136" viewBox="0 0 280 136" role="img" aria-label="GEMILUXVII / astrbot_plugin_jm_cosmos" x="0" y="296">
  <style>
    text { font-family:-apple-system,BlinkMacSystemFont,'Segoe UI','Noto Sans CJK SC','Noto Sans',sans-serif; }
    .title { font-size:15px;font-weight:600;fill:#2f80ed; }
    .description { font-size:12px;fill:#434d58; }
    .metric-value { font-size:11px;font-weight:600;fill:#434d58; }
    .updated { font-size:10px;fill:#6e7781;letter-spacing:.1px; }
  </style>
  <rect x="4" y="4" width="272" height="128" rx="10" fill="#fffefe" stroke="#e4e2e2" />
  <text x="14" y="29" class="title">GEMILUXVII / astrbot_plugin_jm_…</text>
  <text x="14" y="50" class="description">AstrBot 禁漫漫画下载插件 |</text><text x="14" y="67" class="description">全新重构v2.x架构 | 支持搜索/详情/排行…</text>
  <line x1="14" y1="91" x2="266" y2="91" stroke="#e4e2e2" />
  <g transform="translate(14 105)">
    <path data-icon="star" d="M8 .75l2.16 4.37 4.82.7-3.49 3.4.82 4.8L8 11.75l-4.31 2.27.82-4.8-3.49-3.4 4.82-.7L8 .75z" fill="#ff8500" />
    <text x="22" y="12" class="metric-value">240</text>
  </g>
  <g transform="translate(79 105)">
    <g data-icon="fork" fill="none" stroke="#0969da" stroke-width="1.7" stroke-linecap="round" stroke-linejoin="round">
      <circle cx="4" cy="3" r="2" /><circle cx="12" cy="3" r="2" /><circle cx="8" cy="13" r="2" />
      <path d="M4 5v1c0 2.2 1.8 4 4 4v1M12 5v1c0 2.2-1.8 4-4 4" />
    </g>
    <text x="22" y="12" class="metric-value">30</text>
  </g>
  <g data-icon="activity" transform="translate(183 107)" fill="none" stroke="#6e7781" stroke-width="1.4" stroke-linecap="round" stroke-linejoin="round">
    <circle cx="6" cy="6" r="5" />
    <path d="M6 3v3l2 1.5" />
  </g>
  <text x="266" y="117" text-anchor="end" class="updated">Jun 20, 2026</text>
</svg><svg width="280" height="136" viewBox="0 0 280 136" role="img" aria-label="AOrbitron / Eridanus" x="290" y="296">
  <style>
    text { font-family:-apple-system,BlinkMacSystemFont,'Segoe UI','Noto Sans CJK SC','Noto Sans',sans-serif; }
    .title { font-size:15px;font-weight:600;fill:#2f80ed; }
    .description { font-size:12px;fill:#434d58; }
    .metric-value { font-size:11px;font-weight:600;fill:#434d58; }
    .updated { font-size:10px;fill:#6e7781;letter-spacing:.1px; }
  </style>
  <rect x="4" y="4" width="272" height="128" rx="10" fill="#fffefe" stroke="#e4e2e2" />
  <text x="14" y="29" class="title">AOrbitron / Eridanus</text>
  <text x="14" y="50" class="description">基于 OneBot</text><text x="14" y="67" class="description">协议的多功能bot兼开发框架。以llm func…</text>
  <line x1="14" y1="91" x2="266" y2="91" stroke="#e4e2e2" />
  <g transform="translate(14 105)">
    <path data-icon="star" d="M8 .75l2.16 4.37 4.82.7-3.49 3.4.82 4.8L8 11.75l-4.31 2.27.82-4.8-3.49-3.4 4.82-.7L8 .75z" fill="#ff8500" />
    <text x="22" y="12" class="metric-value">196</text>
  </g>
  <g transform="translate(79 105)">
    <g data-icon="fork" fill="none" stroke="#0969da" stroke-width="1.7" stroke-linecap="round" stroke-linejoin="round">
      <circle cx="4" cy="3" r="2" /><circle cx="12" cy="3" r="2" /><circle cx="8" cy="13" r="2" />
      <path d="M4 5v1c0 2.2 1.8 4 4 4v1M12 5v1c0 2.2-1.8 4-4 4" />
    </g>
    <text x="22" y="12" class="metric-value">36</text>
  </g>
  <g data-icon="activity" transform="translate(183 107)" fill="none" stroke="#6e7781" stroke-width="1.4" stroke-linecap="round" stroke-linejoin="round">
    <circle cx="6" cy="6" r="5" />
    <path d="M6 3v3l2 1.5" />
  </g>
  <text x="266" y="117" text-anchor="end" class="updated">Jul 21, 2026</text>
</svg><svg width="280" height="136" viewBox="0 0 280 136" role="img" aria-label="hect0x7 / jmcomic-ai" x="580" y="296">
  <style>
    text { font-family:-apple-system,BlinkMacSystemFont,'Segoe UI','Noto Sans CJK SC','Noto Sans',sans-serif; }
    .title { font-size:15px;font-weight:600;fill:#2f80ed; }
    .description { font-size:12px;fill:#434d58; }
    .metric-value { font-size:11px;font-weight:600;fill:#434d58; }
    .updated { font-size:10px;fill:#6e7781;letter-spacing:.1px; }
  </style>
  <rect x="4" y="4" width="272" height="128" rx="10" fill="#fffefe" stroke="#e4e2e2" />
  <text x="14" y="29" class="title">hect0x7 / jmcomic-ai</text>
  <text x="14" y="50" class="description">禁漫天堂 Agent Skills / AI 原生</text><text x="14" y="67" class="description">JMComic 助手：通过 MCP 与 Skills 将 J…</text>
  <line x1="14" y1="91" x2="266" y2="91" stroke="#e4e2e2" />
  <g transform="translate(14 105)">
    <path data-icon="star" d="M8 .75l2.16 4.37 4.82.7-3.49 3.4.82 4.8L8 11.75l-4.31 2.27.82-4.8-3.49-3.4 4.82-.7L8 .75z" fill="#ff8500" />
    <text x="22" y="12" class="metric-value">80</text>
  </g>
  <g transform="translate(79 105)">
    <g data-icon="fork" fill="none" stroke="#0969da" stroke-width="1.7" stroke-linecap="round" stroke-linejoin="round">
      <circle cx="4" cy="3" r="2" /><circle cx="12" cy="3" r="2" /><circle cx="8" cy="13" r="2" />
      <path d="M4 5v1c0 2.2 1.8 4 4 4v1M12 5v1c0 2.2-1.8 4-4 4" />
    </g>
    <text x="22" y="12" class="metric-value">3</text>
  </g>
  <g data-icon="activity" transform="translate(183 107)" fill="none" stroke="#6e7781" stroke-width="1.4" stroke-linecap="round" stroke-linejoin="round">
    <circle cx="6" cy="6" r="5" />
    <path d="M6 3v3l2 1.5" />
  </g>
  <text x="266" y="117" text-anchor="end" class="updated">Jul 15, 2026</text>
</svg><svg width="280" height="136" viewBox="0 0 280 136" role="img" aria-label="AmethystTim / JM-PDF-plugin" x="0" y="440">
  <style>
    text { font-family:-apple-system,BlinkMacSystemFont,'Segoe UI','Noto Sans CJK SC','Noto Sans',sans-serif; }
    .title { font-size:15px;font-weight:600;fill:#2f80ed; }
    .description { font-size:12px;fill:#434d58; }
    .metric-value { font-size:11px;font-weight:600;fill:#434d58; }
    .updated { font-size:10px;fill:#6e7781;letter-spacing:.1px; }
  </style>
  <rect x="4" y="4" width="272" height="128" rx="10" fill="#fffefe" stroke="#e4e2e2" />
  <text x="14" y="29" class="title">AmethystTim / JM-PDF-plugin</text>
  <text x="14" y="50" class="description">LangBot插件，用于JM漫画下载🧩，支持缓</text><text x="14" y="67" class="description">存，指定章节下载，文案匹配，定时撤回…</text>
  <line x1="14" y1="91" x2="266" y2="91" stroke="#e4e2e2" />
  <g transform="translate(14 105)">
    <path data-icon="star" d="M8 .75l2.16 4.37 4.82.7-3.49 3.4.82 4.8L8 11.75l-4.31 2.27.82-4.8-3.49-3.4 4.82-.7L8 .75z" fill="#ff8500" />
    <text x="22" y="12" class="metric-value">69</text>
  </g>
  <g transform="translate(79 105)">
    <g data-icon="fork" fill="none" stroke="#0969da" stroke-width="1.7" stroke-linecap="round" stroke-linejoin="round">
      <circle cx="4" cy="3" r="2" /><circle cx="12" cy="3" r="2" /><circle cx="8" cy="13" r="2" />
      <path d="M4 5v1c0 2.2 1.8 4 4 4v1M12 5v1c0 2.2-1.8 4-4 4" />
    </g>
    <text x="22" y="12" class="metric-value">9</text>
  </g>
  <g data-icon="activity" transform="translate(183 107)" fill="none" stroke="#6e7781" stroke-width="1.4" stroke-linecap="round" stroke-linejoin="round">
    <circle cx="6" cy="6" r="5" />
    <path d="M6 3v3l2 1.5" />
  </g>
  <text x="266" y="117" text-anchor="end" class="updated">May 28, 2025</text>
</svg><svg width="280" height="136" viewBox="0 0 280 136" role="img" aria-label="hect0x7 / jm-view-server" x="290" y="440">
  <style>
    text { font-family:-apple-system,BlinkMacSystemFont,'Segoe UI','Noto Sans CJK SC','Noto Sans',sans-serif; }
    .title { font-size:15px;font-weight:600;fill:#2f80ed; }
    .description { font-size:12px;fill:#434d58; }
    .metric-value { font-size:11px;font-weight:600;fill:#434d58; }
    .updated { font-size:10px;fill:#6e7781;letter-spacing:.1px; }
  </style>
  <rect x="4" y="4" width="272" height="128" rx="10" fill="#fffefe" stroke="#e4e2e2" />
  <text x="14" y="29" class="title">hect0x7 / jm-view-server</text>
  <text x="14" y="50" class="description">本地看漫画神器，使用浏览器/手机看本 |</text><text x="14" y="67" class="description">局域网 | 文件服务器 | 离线看本 | jmco…</text>
  <line x1="14" y1="91" x2="266" y2="91" stroke="#e4e2e2" />
  <g transform="translate(14 105)">
    <path data-icon="star" d="M8 .75l2.16 4.37 4.82.7-3.49 3.4.82 4.8L8 11.75l-4.31 2.27.82-4.8-3.49-3.4 4.82-.7L8 .75z" fill="#ff8500" />
    <text x="22" y="12" class="metric-value">64</text>
  </g>
  <g transform="translate(79 105)">
    <g data-icon="fork" fill="none" stroke="#0969da" stroke-width="1.7" stroke-linecap="round" stroke-linejoin="round">
      <circle cx="4" cy="3" r="2" /><circle cx="12" cy="3" r="2" /><circle cx="8" cy="13" r="2" />
      <path d="M4 5v1c0 2.2 1.8 4 4 4v1M12 5v1c0 2.2-1.8 4-4 4" />
    </g>
    <text x="22" y="12" class="metric-value">4</text>
  </g>
  <g data-icon="activity" transform="translate(183 107)" fill="none" stroke="#6e7781" stroke-width="1.4" stroke-linecap="round" stroke-linejoin="round">
    <circle cx="6" cy="6" r="5" />
    <path d="M6 3v3l2 1.5" />
  </g>
  <text x="266" y="117" text-anchor="end" class="updated">Jul 19, 2026</text>
</svg><svg width="280" height="136" viewBox="0 0 280 136" role="img" aria-label="ClovertaTheTrilobita / SanYeCao-Nonebot" x="580" y="440">
  <style>
    text { font-family:-apple-system,BlinkMacSystemFont,'Segoe UI','Noto Sans CJK SC','Noto Sans',sans-serif; }
    .title { font-size:15px;font-weight:600;fill:#2f80ed; }
    .description { font-size:12px;fill:#434d58; }
    .metric-value { font-size:11px;font-weight:600;fill:#434d58; }
    .updated { font-size:10px;fill:#6e7781;letter-spacing:.1px; }
  </style>
  <rect x="4" y="4" width="272" height="128" rx="10" fill="#fffefe" stroke="#e4e2e2" />
  <text x="14" y="29" class="title">ClovertaTheTrilobita / SanYeCao…</text>
  <text x="14" y="50" class="description">一个基于Nonebot+官方API的QQ群聊机器人</text>
  <line x1="14" y1="91" x2="266" y2="91" stroke="#e4e2e2" />
  <g transform="translate(14 105)">
    <path data-icon="star" d="M8 .75l2.16 4.37 4.82.7-3.49 3.4.82 4.8L8 11.75l-4.31 2.27.82-4.8-3.49-3.4 4.82-.7L8 .75z" fill="#ff8500" />
    <text x="22" y="12" class="metric-value">55</text>
  </g>
  <g transform="translate(79 105)">
    <g data-icon="fork" fill="none" stroke="#0969da" stroke-width="1.7" stroke-linecap="round" stroke-linejoin="round">
      <circle cx="4" cy="3" r="2" /><circle cx="12" cy="3" r="2" /><circle cx="8" cy="13" r="2" />
      <path d="M4 5v1c0 2.2 1.8 4 4 4v1M12 5v1c0 2.2-1.8 4-4 4" />
    </g>
    <text x="22" y="12" class="metric-value">5</text>
  </g>
  <g data-icon="activity" transform="translate(183 107)" fill="none" stroke="#6e7781" stroke-width="1.4" stroke-linecap="round" stroke-linejoin="round">
    <circle cx="6" cy="6" r="5" />
    <path d="M6 3v3l2 1.5" />
  </g>
  <text x="266" y="117" text-anchor="end" class="updated">Jun 10, 2026</text>
</svg></svg>